<svg width="33" height="22" fill="none" xmlns="http://www.w3.org/2000/svg"><path d="M17.27 5.597a1.261 1.261 0 00-.622.218 1.536 1.536 0 00-.434.47c-.113.19-.196.4-.242.641a2.4 2.4 0 00-.034.734c.03.322.125.548.283.678.155.13.351.181.585.163a2.182 2.182 0 00.709-.186l.211-2.704a1.302 1.302 0 00-.23-.022 1.61 1.61 0 00-.226.008zM.254 3.304C5.488 8.434 10.71 13.57 15.942 18.7c.442.437.641.433 1.09-.004L31.861 4.134c.362-.356.863-.66 1.04-1.09.182-.44.057-1.01.057-1.53C32.962.497 32.453 0 31.412 0H1.51C.524 0 .011.515.008 1.489c0 .407.015.815-.008 1.222-.011.248.075.419.253.593zm11.989 2.982c.173-.67.479-1.297.912-1.867.438-.574 1.019-1.06 1.739-1.463.72-.404 1.599-.652 2.632-.752a5.632 5.632 0 011.588.07c.509.1.958.282 1.354.548.396.267.724.615.984 1.049.256.437.419.959.479 1.574.045.444.011.889-.094 1.337a3.852 3.852 0 01-.513 1.222 3.22 3.22 0 01-.898.93c-.362.252-.773.4-1.237.452-.531.052-.946-.048-1.252-.293a5.27 5.27 0 01-.66.348 2.873 2.873 0 01-.897.208c-.23.022-.457.007-.664-.037a1.45 1.45 0 01-.566-.27 1.62 1.62 0 01-.418-.52 2.106 2.106 0 01-.215-.78 3.478 3.478 0 01.117-1.36c.124-.419.313-.79.57-1.111a3.055 3.055 0 012.1-1.141c.328-.03.652-.037.973-.019.32.015.626.06.912.134l-.343 3.704c.08.048.2.066.37.051.271-.025.501-.125.697-.303.197-.178.351-.397.468-.663.12-.263.2-.548.241-.863.046-.311.05-.611.02-.908-.08-.822-.397-1.426-.947-1.815-.555-.389-1.29-.537-2.218-.452-.713.067-1.335.249-1.87.538a4.124 4.124 0 00-2.052 2.577 4.657 4.657 0 00-.143 1.664c.049.514.17.948.365 1.296.193.352.434.63.725.833.294.208.622.348.995.422.37.07.758.09 1.17.052a8.02 8.02 0 001.04-.166c.317-.078.6-.178.852-.304.08.152.159.307.234.47.072.163.144.323.2.486a2.544 2.544 0 01-.452.218 4.54 4.54 0 01-.577.185c-.208.056-.43.1-.664.141a9.35 9.35 0 01-.702.093 5.33 5.33 0 01-1.617-.09 3.76 3.76 0 01-1.396-.6 3.496 3.496 0 01-1.014-1.14c-.268-.474-.434-1.052-.502-1.73a5.75 5.75 0 01.174-1.955zm13.267 6.907c-.087-.085-.174-.163-.324-.307-.087.111-.155.23-.25.319-2.258 2.222-4.517 4.44-6.78 6.663-1.06 1.04-2.282 1.044-3.334.01-2.259-2.218-4.522-4.44-6.78-6.662-.095-.093-.167-.208-.26-.33-.11.096-.148.126-.182.16-2.466 2.422-4.933 4.848-7.407 7.266-.222.219-.207.445-.143.69.173.659.675.996 1.456.996H31.45c.098 0 .196.007.294-.004.479-.056.864-.27 1.067-.711.208-.449.257-.7-.17-1.115-2.394-2.304-4.759-4.645-7.131-6.975zM.035 18.105l6.411-6.297L.035 5.46v12.645zm32.897-.041V5.452l-6.419 6.304 6.419 6.308z" fill="#fff" fill-opacity=".8"/></svg>