<svg width="28" height="28" fill="none" xmlns="http://www.w3.org/2000/svg"><path d="M14.255 0C6.663 0 .51 6.109.51 13.638c0 2.576.722 4.99 1.97 7.047L0 28l7.611-2.42a13.793 13.793 0 006.644 1.7C21.847 27.28 28 21.171 28 13.642 28 6.112 21.847 0 14.255 0zm6.734 18.365c-.278.78-1.384 1.43-2.268 1.616-.603.128-1.393.23-4.05-.861-3.4-1.395-5.586-4.822-5.754-5.043-.164-.224-1.374-1.815-1.374-3.46 0-1.644.845-2.447 1.184-2.79.277-.285.742-.41 1.18-.41.146 0 .271.007.387.013.339.013.51.036.736.567.277.665.958 2.31 1.038 2.48.084.17.165.397.049.62-.11.231-.204.33-.375.529-.17.195-.332.342-.503.55-.158.182-.332.378-.135.717.197.33.877 1.43 1.877 2.31 1.29 1.14 2.338 1.504 2.712 1.661.277.115.613.086.816-.128.258-.278.577-.736.903-1.187.232-.323.523-.365.829-.25.313.106 1.964.919 2.306 1.085.338.17.564.25.645.39.077.141.077.81-.203 1.59z" fill="#fff" fill-opacity=".8"/></svg>